<svg width="921" height="239" viewBox="0 0 921 239" fill="none" xmlns="http://www.w3.org/2000/svg">
<line x1="238.354" y1="0.353553" x2="0.35356" y2="238.354" stroke="black"/>
<line x1="265.354" y1="0.353553" x2="27.3536" y2="238.354" stroke="black"/>
<line x1="295.354" y1="0.353553" x2="57.3536" y2="238.354" stroke="black"/>
<line x1="328.354" y1="0.353553" x2="90.3536" y2="238.354" stroke="black"/>
<line x1="355.354" y1="0.353553" x2="117.354" y2="238.354" stroke="black"/>
<line x1="385.354" y1="0.353553" x2="147.354" y2="238.354" stroke="black"/>
<line x1="414.354" y1="0.353553" x2="176.354" y2="238.354" stroke="black"/>
<line x1="441.354" y1="0.353553" x2="203.354" y2="238.354" stroke="black"/>
<line x1="471.354" y1="0.353553" x2="233.354" y2="238.354" stroke="black"/>
<line x1="503.354" y1="0.353553" x2="265.354" y2="238.354" stroke="black"/>
<line x1="530.354" y1="0.353553" x2="292.354" y2="238.354" stroke="black"/>
<line x1="560.354" y1="0.353553" x2="322.354" y2="238.354" stroke="black"/>
<line x1="593.354" y1="0.353553" x2="355.354" y2="238.354" stroke="black"/>
<line x1="620.354" y1="0.353553" x2="382.354" y2="238.354" stroke="black"/>
<line x1="650.354" y1="0.353553" x2="412.354" y2="238.354" stroke="black"/>
<line x1="683.354" y1="0.353553" x2="445.354" y2="238.354" stroke="black"/>
<line x1="710.354" y1="0.353553" x2="472.354" y2="238.354" stroke="black"/>
<line x1="740.354" y1="0.353553" x2="502.354" y2="238.354" stroke="black"/>
<line x1="773.354" y1="0.353553" x2="535.354" y2="238.354" stroke="black"/>
<line x1="800.354" y1="0.353553" x2="562.354" y2="238.354" stroke="black"/>
<line x1="830.354" y1="0.353553" x2="592.354" y2="238.354" stroke="black"/>
<line x1="863.354" y1="0.353553" x2="625.354" y2="238.354" stroke="black"/>
<line x1="890.354" y1="0.353553" x2="652.354" y2="238.354" stroke="black"/>
<line x1="920.354" y1="0.353553" x2="682.354" y2="238.354" stroke="black"/>
</svg>
