<svg id="Layer_1" data-name="Layer 1" xmlns="http://www.w3.org/2000/svg" viewBox="0 0 1460 1000"><defs><style>.cls-1{fill:none;stroke:#000;stroke-miterlimit:10;stroke-width:10px;}</style></defs><line class="cls-1" x1="408.49" y1="1057.36" x2="1051.51" y2="-56.36"/><line class="cls-1" x1="588.49" y1="1057.36" x2="1231.51" y2="-56.36"/><line class="cls-1" x1="498.49" y1="1056.86" x2="1141.51" y2="-56.86"/><line class="cls-1" x1="678.49" y1="1057.36" x2="1321.51" y2="-56.36"/><line class="cls-1" x1="768.49" y1="1057.36" x2="1411.51" y2="-56.36"/><line class="cls-1" x1="858.49" y1="1057.36" x2="1501.51" y2="-56.36"/><line class="cls-1" x1="948.49" y1="1057.36" x2="1591.51" y2="-56.36"/><line class="cls-1" x1="1038.49" y1="1057.36" x2="1681.51" y2="-56.36"/><line class="cls-1" x1="1128.49" y1="1057.36" x2="1771.51" y2="-56.36"/><line class="cls-1" x1="1218.49" y1="1057.36" x2="1861.51" y2="-56.36"/><line class="cls-1" x1="1308.49" y1="1057.36" x2="1951.51" y2="-56.36"/><line class="cls-1" x1="1398.49" y1="1057.36" x2="2041.51" y2="-56.36"/><line class="cls-1" x1="318.49" y1="1057.36" x2="961.51" y2="-56.36"/><line class="cls-1" x1="408.99" y1="1057.36" x2="1052.01" y2="-56.36"/><line class="cls-1" x1="228.49" y1="1057.36" x2="871.51" y2="-56.36"/><line class="cls-1" x1="138.49" y1="1057.36" x2="781.51" y2="-56.36"/><line class="cls-1" x1="48.49" y1="1057.36" x2="691.51" y2="-56.36"/><line class="cls-1" x1="-41.51" y1="1057.36" x2="601.51" y2="-56.36"/><line class="cls-1" x1="-131.51" y1="1057.36" x2="511.51" y2="-56.36"/><line class="cls-1" x1="-221.51" y1="1057.36" x2="421.51" y2="-56.36"/><line class="cls-1" x1="-311.51" y1="1057.36" x2="331.51" y2="-56.36"/><line class="cls-1" x1="-401.51" y1="1057.36" x2="241.51" y2="-56.36"/><line class="cls-1" x1="-491.51" y1="1057.36" x2="151.51" y2="-56.36"/><line class="cls-1" x1="-581.51" y1="1057.36" x2="61.51" y2="-56.36"/></svg>